HIERARCHY
ROOT Hips
{
	OFFSET 0.000000 0.000000 0.000000
	CHANNELS 6 Xposition Yposition Zposition Xrotation Yrotation Zrotation
	JOINT LeftUpLeg_virtual
	{
		OFFSET 0.000000 0.000000 0.000000
		CHANNELS 3 Xrotation Yrotation Zrotation
		JOINT LeftUpLeg
		{
			OFFSET 11.394100 -6.187798 -0.413800
			CHANNELS 3 Xrotation Yrotation Zrotation
			JOINT LeftLeg
			{
				OFFSET 0.430247 -32.302673 3.732800
				CHANNELS 3 Xrotation Yrotation Zrotation
				JOINT LeftFoot
				{
					OFFSET -0.430247 -48.264931 -6.423300
					CHANNELS 3 Xrotation Yrotation Zrotation
					JOINT LeftToeBase
					{
						OFFSET 4.230900 -16.068199 23.438400
						CHANNELS 3 Xrotation Yrotation Zrotation
						JOINT LeftToe_End
						{
							OFFSET 4.510700 0.695400 19.974600
							CHANNELS 3 Xrotation Yrotation Zrotation
							End Site
							{
								OFFSET 0 0 0
							}
						}
					}
				}
			}
		}
	}
	JOINT RightUpLeg_virtual
	{
		OFFSET 0.000000 0.000000 0.000000
		CHANNELS 3 Xrotation Yrotation Zrotation
		JOINT RightUpLeg
		{
			OFFSET -11.333700 -6.187798 -0.413800
			CHANNELS 3 Xrotation Yrotation Zrotation
			JOINT RightLeg
			{
				OFFSET -0.430392 -32.302628 3.733000
				CHANNELS 3 Xrotation Yrotation Zrotation
				JOINT RightFoot
				{
					OFFSET 0.430392 -48.264973 -6.423500
					CHANNELS 3 Xrotation Yrotation Zrotation
					JOINT RightToeBase
					{
						OFFSET -4.230900 -16.068199 23.438400
						CHANNELS 3 Xrotation Yrotation Zrotation
						JOINT RightToe_End
						{
							OFFSET -4.510700 0.695400 19.974600
							CHANNELS 3 Xrotation Yrotation Zrotation
							End Site
							{
								OFFSET 0 0 0
							}
						}
					}
				}
			}
		}
	}
	JOINT Spine_virtual
	{
		OFFSET 0.000000 0.000000 0.000000
		CHANNELS 3 Xrotation Yrotation Zrotation
		JOINT Spine
		{
			OFFSET -0.002400 12.777504 0.315300
			CHANNELS 3 Xrotation Yrotation Zrotation
			JOINT Spine1
			{
				OFFSET -0.002067 5.816869 0.032633
				CHANNELS 3 Xrotation Yrotation Zrotation
				JOINT Spine1_split
				{
					OFFSET -0.002067 5.816869 0.032633
					CHANNELS 3 Xrotation Yrotation Zrotation
					JOINT Spine2
					{
						OFFSET -0.002067 5.816869 0.032633
						CHANNELS 3 Xrotation Yrotation Zrotation
						JOINT Neck_virtual
						{
							OFFSET 0.000000 0.000000 0.000000
							CHANNELS 3 Xrotation Yrotation Zrotation
							JOINT Neck
							{
								OFFSET -0.003700 21.199493 -0.826900
								CHANNELS 3 Xrotation Yrotation Zrotation
								JOINT Head
								{
									OFFSET 0.000000 20.442200 4.834800
									CHANNELS 3 Xrotation Yrotation Zrotation
									JOINT HeadTop_End
									{
										OFFSET 0.000000 34.668396 4.968400
										CHANNELS 3 Xrotation Yrotation Zrotation
										End Site
										{
											OFFSET 0 0 0
										}
									}
								}
							}
						}
						JOINT LeftShoulder_virtual
						{
							OFFSET 0.000000 0.000000 0.000000
							CHANNELS 3 Xrotation Yrotation Zrotation
							JOINT LeftShoulder
							{
								OFFSET 3.288150 8.794197 -1.372250
								CHANNELS 3 Xrotation Yrotation Zrotation
								JOINT LeftShoulder_split
								{
									OFFSET 3.288150 8.794197 -1.372250
									CHANNELS 3 Xrotation Yrotation Zrotation
									JOINT LeftArm
									{
										OFFSET 11.953299 -2.279007 -0.146200
										CHANNELS 3 Xrotation Yrotation Zrotation
										JOINT LeftForeArm
										{
											OFFSET 18.448900 0.000000 0.000000
											CHANNELS 3 Xrotation Yrotation Zrotation
											JOINT LeftHand
											{
												OFFSET 29.527798 0.000000 0.000000
												CHANNELS 3 Xrotation Yrotation Zrotation
												End Site
												{
													OFFSET 0 0 0
												}
											}
										}
									}
								}
							}
						}
						JOINT RightShoulder_virtual
						{
							OFFSET 0.000000 0.000000 0.000000
							CHANNELS 3 Xrotation Yrotation Zrotation
							JOINT RightShoulder
							{
								OFFSET -3.249400 8.794197 -1.372250
								CHANNELS 3 Xrotation Yrotation Zrotation
								JOINT RightShoulder_split
								{
									OFFSET -3.249400 8.794197 -1.372250
									CHANNELS 3 Xrotation Yrotation Zrotation
									JOINT RightArm
									{
										OFFSET -11.953299 -2.279007 -0.146200
										CHANNELS 3 Xrotation Yrotation Zrotation
										JOINT RightForeArm
										{
											OFFSET -18.448900 0.000000 0.000000
											CHANNELS 3 Xrotation Yrotation Zrotation
											JOINT RightHand
											{
												OFFSET -29.527802 0.000000 0.000000
												CHANNELS 3 Xrotation Yrotation Zrotation
												End Site
												{
													OFFSET 0 0 0
												}
											}
										}
									}
								}
							}
						}
					}
				}
			}
		}
	}
}
MOTION
Frames: 6
Frame Time: 0.03333333
-2.623703 142.589417 -0.607422 0.000000 0.000000 0.000000 6.283760 -2.226289 4.423867 -45.453789 12.577556 3.591652 39.526687 9.041647 -3.523265 44.118166 10.517077 5.829285 -4.306597 0.641689 -0.573614 0.000000 0.000000 0.000000 7.426536 -1.940270 4.065863 -7.890809 5.112373 -8.352478 29.306228 -5.344244 5.416980 29.652501 -10.837972 22.235010 1.594426 5.190256 1.206051 0.000000 0.000000 0.000000 8.235427 -5.127386 4.730035 -8.534454 2.095417 -0.148890 -5.636364 1.406536 0.637951 2.218886 -4.985341 2.574728 0.000000 0.000000 0.000000 -2.578867 0.218039 0.555991 -14.760199 -3.424419 -0.894768 -3.772554 1.201539 1.570587 0.000000 0.000000 0.000000 -7.019815 0.638127 0.446519 14.232184 1.601473 30.000691 11.687986 10.460529 -0.246234 -54.504640 -40.339148 4.441622 -41.777317 -23.515751 1.844702 0.000000 0.000000 0.000000 -7.474629 0.521908 1.447985 3.082467 -9.515752 -32.820111 -0.700735 4.080909 0.804348 -72.467084 33.623239 12.279408 -25.841578 28.451341 1.479761 0.000000 0.000000 0.000000 
-1.394169 143.033066 -2.290871 0.000000 0.000000 0.000000 6.040472 -4.089015 4.426531 -43.445290 10.030535 1.820801 41.702526 8.163709 -3.223764 40.754106 10.053834 5.505268 -4.349107 0.275618 0.008803 0.000000 0.000000 0.000000 7.446918 -3.515188 4.033682 -9.620893 2.550378 -8.455807 31.968072 -4.482346 5.603225 31.472514 -9.280078 22.275277 4.425200 5.325748 0.353818 0.000000 0.000000 0.000000 8.329776 -6.491974 4.711068 -8.712864 1.895042 -0.008593 -5.738159 1.602580 1.140420 1.366146 -2.950815 1.704189 0.000000 0.000000 0.000000 -1.781946 0.508171 0.742687 -14.889988 -3.648232 0.108856 -4.851936 0.724845 1.477639 0.000000 0.000000 0.000000 -6.752944 0.835034 0.897182 14.319178 1.651413 30.511100 11.037334 8.612892 -0.216187 -56.382341 -41.925880 1.889317 -40.240958 -23.790300 3.590393 0.000000 0.000000 0.000000 -6.812566 0.665370 1.573083 3.229523 -9.455305 -32.919855 -1.105105 3.981999 0.753691 -72.380717 32.830120 11.621896 -25.858763 28.765393 1.391844 0.000000 0.000000 0.000000 
0.290033 143.795441 -4.743134 0.000000 0.000000 0.000000 5.171288 -7.486559 3.984810 -42.415929 7.119124 -0.499090 46.891137 4.618130 -2.382994 34.396911 7.282175 4.051406 -4.788430 -0.224077 0.495591 0.000000 0.000000 0.000000 7.194809 -6.782287 3.791043 -10.738354 -0.512151 -8.543978 33.173617 -4.443063 5.697734 34.145437 -7.102861 21.458895 3.534911 5.299195 0.389874 0.000000 0.000000 0.000000 8.087991 -9.809364 4.402207 -8.007656 2.128392 0.508478 -5.713571 2.627959 1.701374 1.199330 -0.900935 0.275963 0.000000 0.000000 0.000000 -1.107310 1.719713 0.920491 -15.154496 -3.380391 0.714861 -7.382138 0.996378 1.415308 0.000000 0.000000 0.000000 -6.618539 1.948134 1.257848 14.823988 2.368121 30.665333 9.865629 6.532248 -0.410563 -62.017038 -42.634748 -3.294208 -37.521781 -26.789245 6.987468 0.000000 0.000000 0.000000 -6.186434 1.736528 1.834324 4.048407 -8.921971 -33.004434 -1.512036 3.658910 0.478080 -72.795446 30.983514 11.272225 -26.191687 29.426012 1.255113 0.000000 0.000000 0.000000 
1.801502 144.849319 -6.909088 0.000000 0.000000 0.000000 4.061613 -11.736106 3.109012 -42.620117 4.611270 -2.710159 52.530121 0.238476 -1.218941 26.167300 3.829894 1.966876 -5.404902 -0.817127 0.863918 0.000000 0.000000 0.000000 6.821159 -11.847407 3.280971 -10.538809 -3.760943 -8.636772 32.601169 -5.375694 5.483812 35.674211 -6.152631 18.401325 1.416992 5.198376 1.543657 0.000000 0.000000 0.000000 7.322100 -15.389337 3.615027 -6.372171 2.834322 1.307399 -5.484923 4.357430 2.272910 1.790784 0.927596 -0.709832 0.000000 0.000000 0.000000 -0.703801 3.702796 1.100820 -15.530344 -2.822706 0.942443 -10.773719 2.028685 1.511369 0.000000 0.000000 0.000000 -6.431596 3.819944 1.467099 15.621869 3.927848 30.511988 7.836897 4.786959 -0.473135 -68.503157 -41.456441 -8.201863 -33.913184 -30.138442 12.167437 0.000000 0.000000 0.000000 -5.570832 3.700041 2.215617 5.314003 -8.065822 -33.212925 -2.042037 3.236006 0.007509 -73.624173 29.131187 11.298487 -26.628807 30.163980 0.960136 0.000000 0.000000 0.000000 
2.823984 146.090851 -8.827614 0.000000 0.000000 0.000000 3.115495 -17.061655 1.902357 -43.058629 3.074782 -4.343411 55.521515 -2.710635 -0.358073 17.330005 2.161160 0.971651 -5.840359 -1.409714 0.939874 0.000000 0.000000 0.000000 6.630068 -18.790067 2.574929 -9.276766 -6.553864 -9.176013 31.010476 -6.721348 4.971196 35.925781 -6.719817 12.788410 2.022295 5.008124 3.862694 0.000000 0.000000 0.000000 6.200362 -22.690394 2.448127 -4.110616 3.974749 2.218127 -5.033880 6.569681 2.832559 2.578528 1.589160 -0.630179 0.000000 0.000000 0.000000 -0.527150 6.185453 1.318974 -15.734915 -2.222354 1.050402 -13.966819 3.679497 1.857494 0.000000 0.000000 0.000000 -5.956255 6.187541 1.534358 16.577649 6.314371 30.083356 5.574155 3.390476 -0.687591 -72.819700 -39.395793 -10.333919 -30.805147 -32.239920 17.977804 0.000000 0.000000 0.000000 -4.993664 6.346939 2.700191 6.744549 -6.990510 -33.672580 -2.564325 2.783517 -0.756459 -74.672785 28.293635 11.651063 -27.080751 30.986943 0.475715 0.000000 0.000000 0.000000 
3.300734 147.908920 -11.355381 0.000000 0.000000 0.000000 2.786611 -24.589292 0.712652 -42.518057 2.407959 -4.970196 54.113724 -3.070357 -0.318827 9.726476 3.350731 2.360157 -5.741805 -1.867075 0.591582 0.000000 0.000000 0.000000 6.006554 -27.698131 1.608020 -7.842278 -8.595666 -10.382036 30.237282 -7.409423 4.316877 37.350599 -7.765432 6.695547 5.011678 4.822094 6.896899 0.000000 0.000000 0.000000 5.284658 -31.107045 1.193972 -1.719331 5.365054 3.021171 -4.368224 9.003010 3.322832 3.156484 0.365722 -0.503241 0.000000 0.000000 0.000000 -0.398331 8.834567 1.533385 -15.591672 -1.825105 1.284867 -16.078217 5.606812 2.493093 0.000000 0.000000 0.000000 -5.153156 8.774161 1.431331 17.636855 8.949267 29.317033 3.651075 2.440122 -0.665367 -73.280171 -36.681046 -8.088158 -29.194640 -32.115003 23.109858 0.000000 0.000000 0.000000 -4.298735 9.322004 3.203414 8.132811 -5.822862 -34.164254 -3.095434 2.238620 -1.889465 -75.979154 28.710519 12.184263 -27.402659 31.922884 -0.307367 0.000000 0.000000 0.000000 
